# Created by RobotArt <http://www.robotart.com>
usemtl Box
v 0.000000 0.000000 0.000000
v 0.000000 0.000000 1.000000
v 0.000000 10.000000 0.000000
v 0.000000 10.000000 1.000000
v 10.000000 0.000000 0.000000
v 10.000000 0.000000 1.000000
v 10.000000 10.000000 0.000000
v 10.000000 10.000000 1.000000
v 0.000000 0.000000 0.000000
v 10.000000 0.000000 0.000000
v 0.000000 0.000000 1.000000
v 10.000000 0.000000 1.000000
v 0.000000 10.000000 0.000000
v 10.000000 10.000000 0.000000
v 0.000000 10.000000 1.000000
v 10.000000 10.000000 1.000000
v 0.000000 0.000000 0.000000
v 0.000000 10.000000 0.000000
v 10.000000 0.000000 0.000000
v 10.000000 10.000000 0.000000
v 0.000000 0.000000 1.000000
v 0.000000 10.000000 1.000000
v 10.000000 0.000000 1.000000
v 10.000000 10.000000 1.000000
vn -1.000000 0.000000 0.000000
vn -1.000000 0.000000 0.000000
vn -1.000000 0.000000 0.000000
vn -1.000000 0.000000 0.000000
vn 1.000000 0.000000 0.000000
vn 1.000000 0.000000 0.000000
vn 1.000000 0.000000 0.000000
vn 1.000000 0.000000 0.000000
vn 0.000000 -1.000000 0.000000
vn 0.000000 -1.000000 0.000000
vn 0.000000 -1.000000 0.000000
vn 0.000000 -1.000000 0.000000
vn 0.000000 1.000000 0.000000
vn 0.000000 1.000000 0.000000
vn 0.000000 1.000000 0.000000
vn 0.000000 1.000000 0.000000
vn 0.000000 0.000000 -1.000000
vn 0.000000 0.000000 -1.000000
vn 0.000000 0.000000 -1.000000
vn 0.000000 0.000000 -1.000000
vn 0.000000 0.000000 1.000000
vn 0.000000 0.000000 1.000000
vn 0.000000 0.000000 1.000000
vn 0.000000 0.000000 1.000000
f 1//1 2//2 3//3
f 3//3 2//2 4//4
f 6//6 5//5 7//7
f 6//6 7//7 8//8
f 10//10 12//12 9//9
f 9//9 12//12 11//11
f 16//16 14//14 13//13
f 16//16 13//13 15//15
f 18//18 20//20 17//17
f 17//17 20//20 19//19
f 24//24 22//22 21//21
f 24//24 21//21 23//23
# statistics: 12 triangles, 24 vertices, 24 normals
